<svg xmlns="http://www.w3.org/2000/svg" xmlns:xlink="http://www.w3.org/1999/xlink" version="1.1" width="298px" height="50px" viewBox="0 0 298 50">
    <g id="Logos" stroke="none" stroke-width="1" fill="none" fill-rule="evenodd">
        <g id="Vector-Light" transform="translate(-74.000000, -496.000000)">
            <g id="by-CU7IOUS" transform="translate(76.000000, 496.000000)">
                <path d="M66.536,28.48 C70.2160184,28.48 73.2239883,27.0240146 75.56,24.112 L80.36,29.056 C76.551981,33.3440214 72.0640258,35.488 66.896,35.488 C61.7279742,35.488 57.4720167,33.8560163 54.128,30.592 C50.7839833,27.3279837 49.112,23.2080249 49.112,18.232 C49.112,13.2559751 50.815983,9.10401664 54.224,5.776 C57.632017,2.44798336 61.7999754,0.784 66.728,0.784 C72.2320275,0.784 76.8399814,2.87997904 80.552,7.072 L75.896,12.352 C73.5279882,9.40798528 70.5840176,7.936 67.064,7.936 C64.2479859,7.936 61.84001,8.8559908 59.84,10.696 C57.83999,12.5360092 56.84,15.0159844 56.84,18.136 C56.84,21.2560156 57.7839906,23.7599906 59.672,25.648 C61.5600094,27.5360094 63.8479866,28.48 66.536,28.48 L66.536,28.48 Z M105.184,28.768 C107.296011,28.768 108.967994,27.9920078 110.2,26.44 C111.432006,24.8879922 112.048,22.7680134 112.048,20.08 L112.048,1.552 L119.536,1.552 L119.536,20.32 C119.536,25.1840243 118.192013,28.919987 115.504,31.528 C112.815987,34.136013 109.376021,35.44 105.184,35.44 C100.991979,35.44 97.5440135,34.1280131 94.84,31.504 C92.1359865,28.8799869 90.784,25.1520242 90.784,20.32 L90.784,1.552 L98.272,1.552 L98.272,20.08 C98.272,22.7680134 98.8959938,24.8879922 100.144,26.44 C101.392006,27.9920078 103.071989,28.768 105.184,28.768 L105.184,28.768 Z M130.44,12.304 L130.44,1.552 L154.68,1.552 L154.68,7.216 L141.096,35.104 L132.936,35.104 L145.896,7.984 L137.448,7.984 L137.448,12.304 L130.44,12.304 Z M165.104,1.552 L172.592,1.552 L172.592,35.104 L165.104,35.104 L165.104,1.552 Z M208.648,10.48 C206.72799,8.36798944 204.368014,7.312 201.568,7.312 C198.767986,7.312 196.40801,8.36798944 194.488,10.48 C192.56799,12.5920106 191.608,15.143985 191.608,18.136 C191.608,21.128015 192.56799,23.6719895 194.488,25.768 C196.40801,27.8640105 198.767986,28.912 201.568,28.912 C204.368014,28.912 206.72799,27.8640105 208.648,25.768 C210.56801,23.6719895 211.528,21.128015 211.528,18.136 C211.528,15.143985 210.56801,12.5920106 208.648,10.48 L208.648,10.48 Z M201.544,35.44 C196.583975,35.44 192.408017,33.7840166 189.016,30.472 C185.623983,27.1599834 183.928,23.0400246 183.928,18.112 C183.928,13.1839754 185.623983,9.06401656 189.016,5.752 C192.408017,2.43998344 196.583975,0.784 201.544,0.784 C206.504025,0.784 210.679983,2.43998344 214.072,5.752 C217.464017,9.06401656 219.16,13.1839754 219.16,18.112 C219.16,23.0400246 217.464017,27.1599834 214.072,30.472 C210.679983,33.7840166 206.504025,35.44 201.544,35.44 L201.544,35.44 Z M244.416,28.768 C246.528011,28.768 248.199994,27.9920078 249.432,26.44 C250.664006,24.8879922 251.28,22.7680134 251.28,20.08 L251.28,1.552 L258.768,1.552 L258.768,20.32 C258.768,25.1840243 257.424013,28.919987 254.736,31.528 C252.047987,34.136013 248.608021,35.44 244.416,35.44 C240.223979,35.44 236.776014,34.1280131 234.072,31.504 C231.367986,28.8799869 230.016,25.1520242 230.016,20.32 L230.016,1.552 L237.504,1.552 L237.504,20.08 C237.504,22.7680134 238.127994,24.8879922 239.376,26.44 C240.624006,27.9920078 242.303989,28.768 244.416,28.768 L244.416,28.768 Z M279.392,8.248 C278.671996,8.84000296 278.312,9.62399512 278.312,10.6 C278.312,11.5760049 278.751996,12.3519971 279.632,12.928 C280.512004,13.5040029 282.543984,14.1839961 285.728,14.968 C288.912016,15.7520039 291.383991,16.9279922 293.144,18.496 C294.904009,20.0640078 295.784,22.351985 295.784,25.36 C295.784,28.368015 294.656011,30.8079906 292.4,32.68 C290.143989,34.5520094 287.176018,35.488 283.496,35.488 C278.183973,35.488 273.400021,33.5200197 269.144,29.584 L273.608,24.112 C277.224018,27.2800158 280.567985,28.864 283.64,28.864 C285.016007,28.864 286.095996,28.568003 286.88,27.976 C287.664004,27.383997 288.056,26.584005 288.056,25.576 C288.056,24.567995 287.640004,23.768003 286.808,23.176 C285.975996,22.583997 284.328012,21.984003 281.864,21.376 C277.95998,20.4479954 275.104009,19.2400074 273.296,17.752 C271.487991,16.2639926 270.584,13.9280159 270.584,10.744 C270.584,7.55998408 271.727989,5.10400864 274.016,3.376 C276.304011,1.64799136 279.159983,0.784 282.584,0.784 C284.824011,0.784 287.063989,1.16799616 289.304,1.936 C291.544011,2.70400384 293.495992,3.79199296 295.16,5.2 L291.368,10.672 C288.455985,8.46398896 285.448016,7.36 282.344,7.36 C281.095994,7.36 280.112004,7.65599704 279.392,8.248 L279.392,8.248 Z" id="CU7IOUS" fill="#FFF"></path>
                <path d="M3.24468399,19.0679698 C3.24468399,19.0679698 27.7603049,12.3657324 25.3468369,4.56176368 C24.9676259,3.33558161 22.7166434,3.39572 21.5488635,3.92827382 C19.2236009,4.98868554 17.4097947,6.99943999 15.7466183,8.93984298 C13.3724144,11.7097912 3.77849837,24.6982845 6.98986658,29.3010851 C11.9392032,36.3948869 20.5262397,22.5113014 17.1773089,20.6629644 C4.77779209,13.8194411 5.32730524,34.3766814 12.8116859,31.3184063 C15.1636923,30.3573271 16.7701139,24.4020515 18.5089426,26.2546395 L23.0453944,19.0276352 C25.3151282,21.4458618 20.179195,25.475425 20.8299593,28.7275039 C23.5172854,42.1569393 41.9889405,0.226317675 32.382252,18.6521679 C29.7685179,23.6653702 9.36119259,58.8125328 0.844184476,45.2972974 C0.0842737381,44.0914311 -0.250826251,41.7039821 1.00196379,41.0242065 C12.1794529,34.9591966 24.4228987,31.1074407 36.1333661,26.1490578" id="By" stroke="#FFF" stroke-width="3"></path>
            </g>
        </g>
    </g>
</svg>
